<?xml version="1.0" encoding="utf-8"?>
<!-- Generator: Adobe Illustrator 15.0.0, SVG Export Plug-In  -->
<!DOCTYPE svg PUBLIC "-//W3C//DTD SVG 1.1//EN" "http://www.w3.org/Graphics/SVG/1.1/DTD/svg11.dtd" [
	<!ENTITY ns_flows "http://ns.adobe.com/Flows/1.0/">
]>
<svg version="1.1"
	 xmlns="http://www.w3.org/2000/svg" xmlns:xlink="http://www.w3.org/1999/xlink" xmlns:a="http://ns.adobe.com/AdobeSVGViewerExtensions/3.0/"
	 x="0px" y="0px" width="170px" height="100px" viewBox="-6.1 -1 170 100" enable-background="new -6.1 -1 170 100"
	 xml:space="preserve">
<defs>
</defs>
<path fill="#959595" d="M84.021,59.324c1.724,0,3.121-1.389,3.121-3.103V22.262c0-1.58-1.598-2.996-3.021-2.996h-81
	C1.397,19.267,0,20.656,0,22.37v33.851c0,1.675,1.337,3.042,3.007,3.103C3.014,59.326,84.021,59.324,84.021,59.324z"/>
<path fill="#959595" d="M136.143,52.903l-6.566-23.728c-0.461-1.668-1.987-2.825-3.728-2.825H96.639
	c-2.135,0-3.866,1.722-3.866,3.845v30.789c0,2.124-1.731,3.846-3.866,3.846H6.987c-2.135,0-3.866,1.721-3.866,3.845v8.525
	c0,2.124,1.731,3.846,3.866,3.846h3.917c0,6.975,5.685,12.628,12.697,12.628s12.697-5.654,12.697-12.628h5.824
	c0,6.975,5.685,12.628,12.697,12.628s12.697-5.654,12.697-12.628h30.479c0,6.975,5.685,12.628,12.697,12.628
	s12.697-5.654,12.697-12.628h9.543c2.135,0,3.866-1.722,3.866-3.846V57.738C136.799,56.104,136.578,54.479,136.143,52.903z
	 M23.602,88.167c-3.954,0-7.16-3.188-7.16-7.122c0-3.932,3.206-7.12,7.16-7.12s7.159,3.188,7.159,7.12
	C30.761,84.979,27.556,88.167,23.602,88.167z M54.82,88.167c-3.954,0-7.159-3.188-7.159-7.122c0-3.932,3.205-7.12,7.159-7.12
	s7.159,3.188,7.159,7.12C61.979,84.979,58.774,88.167,54.82,88.167z M110.693,88.167c-3.954,0-7.159-3.188-7.159-7.122
	c0-3.932,3.205-7.12,7.159-7.12s7.16,3.188,7.16,7.12C117.853,84.979,114.647,88.167,110.693,88.167z M123.566,53.552h-19.4
	c-1.724,0-3.121-1.39-3.121-3.104v-14.36c0-1.714,1.397-3.103,3.121-3.103h15.674c1.423,0,2.666,0.958,3.021,2.329l3.726,14.359
	C127.097,51.637,125.605,53.552,123.566,53.552z"/>
<path fill="#EC2127" d="M132.77,27.739l1.13,6.296l1-3l4,7l1.027-7.838l10.708,8.824l-3.597-12.559l5.072,0.914l-4.139-3.185
	l11.93-6.294l-12.079,0.834c1.279-2.6,3.564-6.912,3.564-6.912l-7.54,1.64L146.525,0l-8.463,10.744l-3.112-7.955l-2.064,8.523
	l-7.396-7.546l2.813,11.971l-10.428,1.093l7.011,4.424C129.361,22.384,130.932,24.483,132.77,27.739z"/>
</svg>
